<?xml version="1.0" encoding="utf-8" standalone="no"?>
<!DOCTYPE svg PUBLIC "-//W3C//DTD SVG 1.1//EN"
  "http://www.w3.org/Graphics/SVG/1.1/DTD/svg11.dtd">
<svg xmlns:xlink="http://www.w3.org/1999/xlink" width="113.165625pt" height="282.049688pt" viewBox="0 0 113.165625 282.049688" xmlns="http://www.w3.org/2000/svg" version="1.1">
 <metadata>
  <rdf:RDF xmlns:dc="http://purl.org/dc/elements/1.1/" xmlns:cc="http://creativecommons.org/ns#" xmlns:rdf="http://www.w3.org/1999/02/22-rdf-syntax-ns#">
   <cc:Work>
    <dc:type rdf:resource="http://purl.org/dc/dcmitype/StillImage"/>
    <dc:date>2024-04-09T11:24:22.293118</dc:date>
    <dc:format>image/svg+xml</dc:format>
    <dc:creator>
     <cc:Agent>
      <dc:title>Matplotlib v3.8.3, https://matplotlib.org/</dc:title>
     </cc:Agent>
    </dc:creator>
   </cc:Work>
  </rdf:RDF>
 </metadata>
 <defs>
  <style type="text/css">*{stroke-linejoin: round; stroke-linecap: butt}</style>
 </defs>
 <g id="figure_1">
  <g id="patch_1">
   <path d="M 0 282.049688 
L 113.165625 282.049688 
L 113.165625 0 
L 0 0 
z
" style="fill: #ffffff"/>
  </g>
  <g id="axes_1">
   <g id="patch_2">
    <path d="M 54.271625 106.72 
L 105.965625 106.72 
L 105.965625 7.2 
L 54.271625 7.2 
z
" style="fill: #ffffff"/>
   </g>
   <g id="patch_3">
    <path d="M 80.118625 101.388571 
L 80.118625 101.388571 
L 80.118625 101.388571 
L 80.118625 101.388571 
z
" clip-path="url(#p049d1681e8)" style="fill: #eaeaea; stroke: #3c3c3c; stroke-linejoin: miter"/>
   </g>
   <g id="patch_4">
    <path d="M 80.118625 101.388571 
L 80.118625 101.388571 
L 80.118625 101.388571 
L 80.118625 101.388571 
z
" clip-path="url(#p049d1681e8)" style="fill: #646464; stroke: #3c3c3c; stroke-linejoin: miter"/>
   </g>
   <g id="matplotlib.axis_1">
    <g id="xtick_1">
     <g id="line2d_1">
      <defs>
       <path id="mab105ee6a2" d="M 0 0 
L 0 3.5 
" style="stroke: #000000; stroke-width: 0.8"/>
      </defs>
      <g>
       <use xlink:href="#mab105ee6a2" x="80.118625" y="106.72" style="stroke: #000000; stroke-width: 0.8"/>
      </g>
     </g>
     <g id="text_1">
      <text style="font-size: 10.0px; font-family: 'Arial'; text-anchor: middle" x="80.118625" y="120.877813" transform="rotate(-0 80.118625 120.877813)">10-15</text>
     </g>
    </g>
    <g id="text_2">
     <text style="font-size: 10.0px; font-family: 'Arial'; text-anchor: middle" x="80.118625" y="134.145" transform="rotate(-0 80.118625 134.145)">Dose (mg)</text>
    </g>
   </g>
   <g id="matplotlib.axis_2">
    <g id="ytick_1">
     <g id="line2d_2">
      <defs>
       <path id="m596ab7306e" d="M 0 0 
L -3.5 0 
" style="stroke: #000000; stroke-width: 0.8"/>
      </defs>
      <g>
       <use xlink:href="#m596ab7306e" x="54.271625" y="101.388571" style="stroke: #000000; stroke-width: 0.8"/>
      </g>
     </g>
     <g id="text_3">
      <text style="font-size: 10.0px; font-family: 'Arial'; text-anchor: end" x="47.271625" y="104.967478" transform="rotate(-0 47.271625 104.967478)">0.0</text>
     </g>
    </g>
    <g id="ytick_2">
     <g id="line2d_3">
      <g>
       <use xlink:href="#m596ab7306e" x="54.271625" y="56.96" style="stroke: #000000; stroke-width: 0.8"/>
      </g>
     </g>
     <g id="text_4">
      <text style="font-size: 10.0px; font-family: 'Arial'; text-anchor: end" x="47.271625" y="60.538906" transform="rotate(-0 47.271625 60.538906)">0.5</text>
     </g>
    </g>
    <g id="ytick_3">
     <g id="line2d_4">
      <g>
       <use xlink:href="#m596ab7306e" x="54.271625" y="12.531429" style="stroke: #000000; stroke-width: 0.8"/>
      </g>
     </g>
     <g id="text_5">
      <text style="font-size: 10.0px; font-family: 'Arial'; text-anchor: end" x="47.271625" y="16.110335" transform="rotate(-0 47.271625 16.110335)">1.0</text>
     </g>
    </g>
    <g id="text_6">
     <text style="font-size: 10.0px; font-family: 'Arial'" transform="translate(16.80725 72.801406) rotate(-90)">Counts</text>
     <text style="font-size: 10.0px; font-family: 'Arial'" transform="translate(27.384125 99.840469) rotate(-90)">Treatment / Control</text>
    </g>
   </g>
   <g id="line2d_5">
    <path d="M 54.271625 12.531429 
L 105.965625 12.531429 
" clip-path="url(#p049d1681e8)" style="fill: none; stroke-dasharray: 5.55,2.4; stroke-dashoffset: 0; stroke: #000000; stroke-width: 1.5"/>
   </g>
   <g id="line2d_6">
    <path d="M 69.779825 42.011711 
L 69.779825 42.011711 
" clip-path="url(#p049d1681e8)" style="fill: none; stroke: #3c3c3c"/>
   </g>
   <g id="line2d_7">
    <path d="M 69.779825 37.254699 
L 69.779825 37.254699 
" clip-path="url(#p049d1681e8)" style="fill: none; stroke: #3c3c3c"/>
   </g>
   <g id="line2d_8">
    <path d="M 90.457425 32.04054 
L 90.457425 32.04054 
" clip-path="url(#p049d1681e8)" style="fill: none; stroke: #3c3c3c"/>
   </g>
   <g id="line2d_9">
    <path d="M 90.457425 21.021073 
L 90.457425 21.021073 
" clip-path="url(#p049d1681e8)" style="fill: none; stroke: #3c3c3c"/>
   </g>
   <g id="line2d_10">
    <path d="M 61.508785 39.633205 
L 78.050865 39.633205 
" clip-path="url(#p049d1681e8)" style="fill: none; stroke: #3c3c3c; stroke-width: 3"/>
   </g>
   <g id="line2d_11">
    <path d="M 82.186385 26.530806 
L 98.728465 26.530806 
" clip-path="url(#p049d1681e8)" style="fill: none; stroke: #3c3c3c; stroke-width: 3"/>
   </g>
   <g id="patch_5">
    <path d="M 54.271625 106.72 
L 54.271625 7.2 
" style="fill: none; stroke: #000000; stroke-width: 0.8; stroke-linejoin: miter; stroke-linecap: square"/>
   </g>
   <g id="patch_6">
    <path d="M 54.271625 106.72 
L 105.965625 106.72 
" style="fill: none; stroke: #000000; stroke-width: 0.8; stroke-linejoin: miter; stroke-linecap: square"/>
   </g>
   <g id="PathCollection_1">
    <defs>
     <path id="C0_0_19f56c2244" d="M 0 4 
C 1.060812 4 2.078319 3.578535 2.828427 2.828427 
C 3.578535 2.078319 4 1.060812 4 -0 
C 4 -1.060812 3.578535 -2.078319 2.828427 -2.828427 
C 2.078319 -3.578535 1.060812 -4 0 -4 
C -1.060812 -4 -2.078319 -3.578535 -2.828427 -2.828427 
C -3.578535 -2.078319 -4 -1.060812 -4 0 
C -4 1.060812 -3.578535 2.078319 -2.828427 2.828427 
C -2.078319 3.578535 -1.060812 4 0 4 
z
"/>
    </defs>
    <g clip-path="url(#p049d1681e8)">
     <use xlink:href="#C0_0_19f56c2244" x="69.779825" y="34.876193" style="fill: #eaeaea; fill-opacity: 0.9; stroke: #3c3c3c; stroke-opacity: 0.9"/>
    </g>
    <g clip-path="url(#p049d1681e8)">
     <use xlink:href="#C0_0_19f56c2244" x="69.779825" y="44.390217" style="fill: #eaeaea; fill-opacity: 0.9; stroke: #3c3c3c; stroke-opacity: 0.9"/>
    </g>
   </g>
   <g id="PathCollection_2">
    <defs>
     <path id="C1_0_d2989dac5a" d="M 0 4 
C 1.060812 4 2.078319 3.578535 2.828427 2.828427 
C 3.578535 2.078319 4 1.060812 4 -0 
C 4 -1.060812 3.578535 -2.078319 2.828427 -2.828427 
C 2.078319 -3.578535 1.060812 -4 0 -4 
C -1.060812 -4 -2.078319 -3.578535 -2.828427 -2.828427 
C -3.578535 -2.078319 -4 -1.060812 -4 0 
C -4 1.060812 -3.578535 2.078319 -2.828427 2.828427 
C -2.078319 3.578535 -1.060812 4 0 4 
z
"/>
    </defs>
    <g clip-path="url(#p049d1681e8)">
     <use xlink:href="#C1_0_d2989dac5a" x="90.457425" y="15.511339" style="fill: #646464; fill-opacity: 0.9; stroke: #3c3c3c; stroke-opacity: 0.9"/>
    </g>
    <g clip-path="url(#p049d1681e8)">
     <use xlink:href="#C1_0_d2989dac5a" x="90.457425" y="37.550273" style="fill: #646464; fill-opacity: 0.9; stroke: #3c3c3c; stroke-opacity: 0.9"/>
    </g>
   </g>
   <g id="line2d_12"/>
   <g id="line2d_13"/>
   <g id="legend_1">
    <g id="patch_7">
     <path d="M 9.2 57.635938 
L 98.965625 57.635938 
Q 100.965625 57.635938 100.965625 55.635938 
L 100.965625 14.2 
Q 100.965625 12.2 98.965625 12.2 
L 9.2 12.2 
Q 7.2 12.2 7.2 14.2 
L 7.2 55.635938 
Q 7.2 57.635938 9.2 57.635938 
z
" style="fill: #ffffff; opacity: 0.8; stroke: #000000; stroke-linejoin: miter"/>
    </g>
    <g id="text_7">
     <text style="font-size: 10.0px; font-family: 'Arial'; text-anchor: start" x="11.2" y="23.357813" transform="rotate(-0 11.2 23.357813)">Treatment Duration</text>
    </g>
    <g id="line2d_14">
     <defs>
      <path id="ma2bd681e27" d="M 0 4 
C 1.060812 4 2.078319 3.578535 2.828427 2.828427 
C 3.578535 2.078319 4 1.060812 4 0 
C 4 -1.060812 3.578535 -2.078319 2.828427 -2.828427 
C 2.078319 -3.578535 1.060812 -4 0 -4 
C -1.060812 -4 -2.078319 -3.578535 -2.828427 -2.828427 
C -3.578535 -2.078319 -4 -1.060812 -4 0 
C -4 1.060812 -3.578535 2.078319 -2.828427 2.828427 
C -2.078319 3.578535 -1.060812 4 0 4 
z
" style="stroke: #000000; stroke-opacity: 0.9"/>
     </defs>
     <g>
      <use xlink:href="#ma2bd681e27" x="31.741406" y="34.003125" style="fill: #eaeaea; fill-opacity: 0.9; stroke: #000000; stroke-opacity: 0.9"/>
     </g>
    </g>
    <g id="text_8">
     <text style="font-size: 10.0px; font-family: 'Arial'; text-anchor: start" x="49.741406" y="37.503125" transform="rotate(-0 49.741406 37.503125)">1 week</text>
    </g>
    <g id="line2d_15">
     <defs>
      <path id="m48f8db555c" d="M 0 4 
C 1.060812 4 2.078319 3.578535 2.828427 2.828427 
C 3.578535 2.078319 4 1.060812 4 0 
C 4 -1.060812 3.578535 -2.078319 2.828427 -2.828427 
C 2.078319 -3.578535 1.060812 -4 0 -4 
C -1.060812 -4 -2.078319 -3.578535 -2.828427 -2.828427 
C -3.578535 -2.078319 -4 -1.060812 -4 0 
C -4 1.060812 -3.578535 2.078319 -2.828427 2.828427 
C -2.078319 3.578535 -1.060812 4 0 4 
z
" style="stroke: #000000; stroke-opacity: 0.9"/>
     </defs>
     <g>
      <use xlink:href="#m48f8db555c" x="31.741406" y="48.148438" style="fill: #646464; fill-opacity: 0.9; stroke: #000000; stroke-opacity: 0.9"/>
     </g>
    </g>
    <g id="text_9">
     <text style="font-size: 10.0px; font-family: 'Arial'; text-anchor: start" x="49.741406" y="51.648438" transform="rotate(-0 49.741406 51.648438)">2 weeks</text>
    </g>
   </g>
  </g>
  <g id="axes_2">
   <g id="patch_8">
    <path d="M 54.271625 245.32 
L 105.965625 245.32 
L 105.965625 145.8 
L 54.271625 145.8 
z
" style="fill: #ffffff"/>
   </g>
   <g id="patch_9">
    <path d="M 80.118625 240.344 
L 80.118625 240.344 
L 80.118625 240.344 
L 80.118625 240.344 
z
" clip-path="url(#p2707bc8bfa)" style="fill: #eaeaea; stroke: #3c3c3c; stroke-linejoin: miter"/>
   </g>
   <g id="patch_10">
    <path d="M 80.118625 240.344 
L 80.118625 240.344 
L 80.118625 240.344 
L 80.118625 240.344 
z
" clip-path="url(#p2707bc8bfa)" style="fill: #646464; stroke: #3c3c3c; stroke-linejoin: miter"/>
   </g>
   <g id="matplotlib.axis_3">
    <g id="xtick_2">
     <g id="line2d_16">
      <g>
       <use xlink:href="#mab105ee6a2" x="80.118625" y="245.32" style="stroke: #000000; stroke-width: 0.8"/>
      </g>
     </g>
     <g id="text_10">
      <text style="font-size: 10.0px; font-family: 'Arial'; text-anchor: middle" x="80.118625" y="259.477813" transform="rotate(-0 80.118625 259.477813)">10-15</text>
     </g>
    </g>
    <g id="text_11">
     <text style="font-size: 10.0px; font-family: 'Arial'; text-anchor: middle" x="80.118625" y="272.745" transform="rotate(-0 80.118625 272.745)">Dose (mg)</text>
    </g>
   </g>
   <g id="matplotlib.axis_4">
    <g id="ytick_4">
     <g id="line2d_17">
      <g>
       <use xlink:href="#m596ab7306e" x="54.271625" y="240.344" style="stroke: #000000; stroke-width: 0.8"/>
      </g>
     </g>
     <g id="text_12">
      <text style="font-size: 10.0px; font-family: 'Arial'; text-anchor: end" x="47.271625" y="243.922906" transform="rotate(-0 47.271625 243.922906)">0</text>
     </g>
    </g>
    <g id="ytick_5">
     <g id="line2d_18">
      <g>
       <use xlink:href="#m596ab7306e" x="54.271625" y="215.464" style="stroke: #000000; stroke-width: 0.8"/>
      </g>
     </g>
     <g id="text_13">
      <text style="font-size: 10.0px; font-family: 'Arial'; text-anchor: end" x="47.271625" y="219.042906" transform="rotate(-0 47.271625 219.042906)">1</text>
     </g>
    </g>
    <g id="ytick_6">
     <g id="line2d_19">
      <g>
       <use xlink:href="#m596ab7306e" x="54.271625" y="190.584" style="stroke: #000000; stroke-width: 0.8"/>
      </g>
     </g>
     <g id="text_14">
      <text style="font-size: 10.0px; font-family: 'Arial'; text-anchor: end" x="47.271625" y="194.162906" transform="rotate(-0 47.271625 194.162906)">2</text>
     </g>
    </g>
    <g id="ytick_7">
     <g id="line2d_20">
      <g>
       <use xlink:href="#m596ab7306e" x="54.271625" y="165.704" style="stroke: #000000; stroke-width: 0.8"/>
      </g>
     </g>
     <g id="text_15">
      <text style="font-size: 10.0px; font-family: 'Arial'; text-anchor: end" x="47.271625" y="169.282906" transform="rotate(-0 47.271625 169.282906)">3</text>
     </g>
    </g>
    <g id="text_16">
     <text style="font-size: 10.0px; font-family: 'Arial'" transform="translate(16.80725 211.401406) rotate(-90)">Counts</text>
     <text style="font-size: 10.0px; font-family: 'Arial'" transform="translate(27.384125 238.440469) rotate(-90)">Treatment / Control</text>
    </g>
   </g>
   <g id="line2d_21">
    <path d="M 54.271625 215.464 
L 105.965625 215.464 
" clip-path="url(#p2707bc8bfa)" style="fill: none; stroke-dasharray: 5.55,2.4; stroke-dashoffset: 0; stroke: #000000; stroke-width: 1.5"/>
   </g>
   <g id="line2d_22">
    <path d="M 69.779825 220.398841 
L 69.779825 220.398841 
" clip-path="url(#p2707bc8bfa)" style="fill: none; stroke: #3c3c3c"/>
   </g>
   <g id="line2d_23">
    <path d="M 69.779825 213.031958 
L 69.779825 213.031958 
" clip-path="url(#p2707bc8bfa)" style="fill: none; stroke: #3c3c3c"/>
   </g>
   <g id="line2d_24">
    <path d="M 90.457425 222.013531 
L 90.457425 222.013531 
" clip-path="url(#p2707bc8bfa)" style="fill: none; stroke: #3c3c3c"/>
   </g>
   <g id="line2d_25">
    <path d="M 90.457425 216.262656 
L 90.457425 216.262656 
" clip-path="url(#p2707bc8bfa)" style="fill: none; stroke: #3c3c3c"/>
   </g>
   <g id="line2d_26">
    <path d="M 61.508785 216.7154 
L 78.050865 216.7154 
" clip-path="url(#p2707bc8bfa)" style="fill: none; stroke: #3c3c3c; stroke-width: 3"/>
   </g>
   <g id="line2d_27">
    <path d="M 82.186385 219.138094 
L 98.728465 219.138094 
" clip-path="url(#p2707bc8bfa)" style="fill: none; stroke: #3c3c3c; stroke-width: 3"/>
   </g>
   <g id="patch_11">
    <path d="M 54.271625 245.32 
L 54.271625 145.8 
" style="fill: none; stroke: #000000; stroke-width: 0.8; stroke-linejoin: miter; stroke-linecap: square"/>
   </g>
   <g id="patch_12">
    <path d="M 54.271625 245.32 
L 105.965625 245.32 
" style="fill: none; stroke: #000000; stroke-width: 0.8; stroke-linejoin: miter; stroke-linecap: square"/>
   </g>
   <g id="PathCollection_3">
    <defs>
     <path id="C2_0_992df5ee33" d="M 0 4 
C 1.060812 4 2.078319 3.578535 2.828427 2.828427 
C 3.578535 2.078319 4 1.060812 4 -0 
C 4 -1.060812 3.578535 -2.078319 2.828427 -2.828427 
C 2.078319 -3.578535 1.060812 -4 0 -4 
C -1.060812 -4 -2.078319 -3.578535 -2.828427 -2.828427 
C -3.578535 -2.078319 -4 -1.060812 -4 0 
C -4 1.060812 -3.578535 2.078319 -2.828427 2.828427 
C -2.078319 3.578535 -1.060812 4 0 4 
z
"/>
    </defs>
    <g clip-path="url(#p2707bc8bfa)">
     <use xlink:href="#C2_0_992df5ee33" x="69.779825" y="224.082283" style="fill: #eaeaea; fill-opacity: 0.9; stroke: #3c3c3c; stroke-opacity: 0.9"/>
    </g>
    <g clip-path="url(#p2707bc8bfa)">
     <use xlink:href="#C2_0_992df5ee33" x="69.779825" y="209.348516" style="fill: #eaeaea; fill-opacity: 0.9; stroke: #3c3c3c; stroke-opacity: 0.9"/>
    </g>
   </g>
   <g id="PathCollection_4">
    <defs>
     <path id="C3_0_5cb8585de4" d="M 0 4 
C 1.060812 4 2.078319 3.578535 2.828427 2.828427 
C 3.578535 2.078319 4 1.060812 4 -0 
C 4 -1.060812 3.578535 -2.078319 2.828427 -2.828427 
C 2.078319 -3.578535 1.060812 -4 0 -4 
C -1.060812 -4 -2.078319 -3.578535 -2.828427 -2.828427 
C -3.578535 -2.078319 -4 -1.060812 -4 0 
C -4 1.060812 -3.578535 2.078319 -2.828427 2.828427 
C -2.078319 3.578535 -1.060812 4 0 4 
z
"/>
    </defs>
    <g clip-path="url(#p2707bc8bfa)">
     <use xlink:href="#C3_0_5cb8585de4" x="90.457425" y="224.888969" style="fill: #646464; fill-opacity: 0.9; stroke: #3c3c3c; stroke-opacity: 0.9"/>
    </g>
    <g clip-path="url(#p2707bc8bfa)">
     <use xlink:href="#C3_0_5cb8585de4" x="90.457425" y="213.387219" style="fill: #646464; fill-opacity: 0.9; stroke: #3c3c3c; stroke-opacity: 0.9"/>
    </g>
   </g>
   <g id="line2d_28"/>
   <g id="line2d_29"/>
  </g>
 </g>
 <defs>
  <clipPath id="p049d1681e8">
   <rect x="54.271625" y="7.2" width="51.694" height="99.52"/>
  </clipPath>
  <clipPath id="p2707bc8bfa">
   <rect x="54.271625" y="145.8" width="51.694" height="99.52"/>
  </clipPath>
 </defs>
</svg>
